<?xml version="1.0" encoding="iso-8859-1"?>
<!-- Generator: Adobe Illustrator 19.0.0, SVG Export Plug-In . SVG Version: 6.00 Build 0)  -->
<svg version="1.1" id="Capa_1" xmlns="http://www.w3.org/2000/svg" xmlns:xlink="http://www.w3.org/1999/xlink" x="0px" y="0px"
	 viewBox="0 0 368.64 368.64" style="enable-background:new 0 0 368.64 368.64;" xml:space="preserve">
<path style="fill:#EAEAEA;" d="M330.47,361.813H38.17c-17.311,0-31.343-14.032-31.343-31.343V38.17
	c0-17.311,14.032-31.343,31.343-31.343H330.47c17.311,0,31.343,14.032,31.343,31.343V330.47
	C361.813,347.781,347.781,361.813,330.47,361.813z"/>
<path style="fill:#602F75;" d="M330.467,368.64H38.173C17.126,368.64,0,351.517,0,330.47V38.17C0,17.123,17.126,0,38.173,0h292.294
	c21.047,0,38.173,17.123,38.173,38.17V330.47C368.64,351.517,351.514,368.64,330.467,368.64z M38.173,13.653
	c-13.52,0-24.52,10.998-24.52,24.516V330.47c0,13.518,10.999,24.516,24.52,24.516h292.294c13.52,0,24.52-10.998,24.52-24.516V38.17
	c0-13.519-10.999-24.516-24.52-24.516H38.173z"/>
<polygon style="fill:#EA3457;" points="184.32,227.808 246.903,179.526 184.32,128.352 184.32,75.093 314.027,179.526 
	184.32,279.893 "/>
<polygon style="fill:#00E7FF;" points="75.093,227.808 137.677,179.526 75.093,128.352 75.093,75.093 204.8,179.526 75.093,279.893 
	"/>
<g>
</g>
<g>
</g>
<g>
</g>
<g>
</g>
<g>
</g>
<g>
</g>
<g>
</g>
<g>
</g>
<g>
</g>
<g>
</g>
<g>
</g>
<g>
</g>
<g>
</g>
<g>
</g>
<g>
</g>
</svg>
